<svg xmlns="http://www.w3.org/2000/svg" baseProfile="full" version="1.1" style="fill: none;" width="1860px" height="885px"><path style="stroke-width: 15px; stroke-linecap: round; stroke-linejoin: round; stroke: #b2b6b9; fill: none;" d=""/><path style="stroke-width: 15px; stroke-linecap: round; stroke-linejoin: round; stroke: rgb(74, 74, 74); fill: none;" d=""/><path style="stroke-width: 21px; stroke-linecap: square; stroke-linejoin: bevel; stroke: rgb(10, 10, 10); fill: none;" d="M540,60 L540,60 L540,420 M300,60 L300,60 L300,420 M240,120 L240,120 L240,360 M180,180 L180,180 L180,300 M360,120 L360,120 L360,360 M420,180 L420,180 L420,300 M60,60 L60,60 L60,420 M240,420 L240,420 L60,240 L240,60 M360,60 L360,60 L540,240 L360,420 "/></svg>