<svg xmlns="http://www.w3.org/2000/svg" version="1.1" viewBox="200 10 1000 1000">
    <path xmlns="http://www.w3.org/2000/svg" d="M60,60 L60,60 L60,420 M420,60 L420,60 L600,240 L420,420 M480,60 L480,60 L660,240 L480,420 M660,60 L660,60 L660,420 M300,60 L300,60 L120,240 L300,420 M240,420 L240,420 L60,240 L240,60 M360,60 L360,60 L360,420 M300,120 L300,120 L300,360 M240,180 L240,180 L240,300 M420,120 L420,120 L420,360 M480,180 L480,180 L480,300 " transform="scale(1.8)" style="stroke-width: 21px; stroke-linecap: round; stroke-linejoin: round; stroke:#b2b6b9; fill: none;"/>
</svg>