<svg xmlns="http://www.w3.org/2000/svg" version="1.1" viewbox="0 0 300 300">
	<path style="stroke-width: 1px; stroke-linecap: round; stroke-linejoin: round; stroke:0; fill: #b2b6b9;" d="M150,120 A30,30 0 0,1 180,150 A30,30 0 0,1 150,180 A30,30 0 0,1 120,150 A30,30 0 0,1 150,120 Z M180,150 A30,30 0 0,1 210,120 A30,30 0 0,1 240,150 A30,30 0 0,1 210,180 A30,30 0 0,1 180,150 M90,120 A30,30 0 0,0 60,150 A30,30 0 0,0 90,180 A30,30 0 0,0 120,150 A30,30 0 0,0 90,120 M60,120 L120,120 A60,60 0 0,0 60,60 L60,120 M180,120 L240,120 L240,60 A60,60 0 0,0 180,120 M60,180 L60,240 A60,60 0 0,0 120,180 L60,180 M240,180 L180,180 A60,60 0 0,0 240,240 L240,180 M120,180 L180,180 L180,240 A30,15 0 0,1 150,225 A30,15 0 0,1 120,240 L120,180 M120,120 L120,60 A30,15 0 0,1 150,75 A30,15 0 0,1 180,60 L180,120 L120,120 " />
</svg>
