<?xml version="1.0" encoding="UTF-8" standalone="no"?>
<svg
   version="1.1"
   width="132.93532mm"
   height="90.092628mm"
   viewBox="0 0 132.93531 90.092625"
   id="svg2808"
   sodipodi:docname="corne.project.svg"
   inkscape:version="1.2.2 (b0a8486541, 2022-12-01)"
   xml:space="preserve"
   xmlns:inkscape="http://www.inkscape.org/namespaces/inkscape"
   xmlns:sodipodi="http://sodipodi.sourceforge.net/DTD/sodipodi-0.dtd"
   xmlns="http://www.w3.org/2000/svg"
   xmlns:svg="http://www.w3.org/2000/svg"
   xmlns:rdf="http://www.w3.org/1999/02/22-rdf-syntax-ns#"
   xmlns:cc="http://creativecommons.org/ns#"
   xmlns:dc="http://purl.org/dc/elements/1.1/"><sodipodi:namedview
     id="namedview13"
     pagecolor="#505050"
     bordercolor="#ffffff"
     borderopacity="1"
     inkscape:showpageshadow="0"
     inkscape:pageopacity="0"
     inkscape:pagecheckerboard="1"
     inkscape:deskcolor="#505050"
     inkscape:document-units="mm"
     showgrid="false"
     inkscape:zoom="1.5214803"
     inkscape:cx="284.26264"
     inkscape:cy="447.59042"
     inkscape:window-width="1920"
     inkscape:window-height="1011"
     inkscape:window-x="0"
     inkscape:window-y="0"
     inkscape:window-maximized="1"
     inkscape:current-layer="g6220" /><defs
     id="defs2812" /><title
     id="title2704">SVG Image created as corne-bottom-plate-Edge_Cuts.svg date 2023/04/05 13:59:53 </title><desc
     id="desc2706">Image generated by PCBNEW </desc><metadata
     id="metadata257"><rdf:RDF><cc:Work
         rdf:about=""><dc:title>SVG Image created as corne-bottom-plate-Edge_Cuts.svg date 2023/04/05 13:59:53 </dc:title></cc:Work></rdf:RDF></metadata><g
     id="g6220"
     transform="translate(-0.28309335,-100.22857)"
     style="display:inline"><path
       id="path5693-3"
       style="display:inline;fill:none;fill-opacity:0;stroke:#000000;stroke-width:1;stroke-linecap:round;stroke-linejoin:round;stroke-dasharray:none;stroke-opacity:1"
       d="M 111.57459,105.45749 H 93.645248 m -0.5,-0.5 v -1.50352 m -0.5,-0.5 H 74.567639 m -0.5,-0.5 v -1.2254 m -0.5,-0.5 H 58.403521 m -0.561391,1.00658 v 0.62142 m -0.5,0.5 H 39.273562 m -0.435552,0.69827 v 3.75 m -0.5,0.5 -37.0518167,-0.20222 m -0.49999995,0.5 -0.0031,53.21782 M 55.95803,162.02266 1.2830943,161.82044 M 132.71842,108.3343 l -0.0501,58.34228 m 0.0501,-58.34228 c 0,-0.27614 -0.22386,-0.5 -0.5,-0.5 m -39.073172,-2.87681 c 0,0.27614 0.223858,0.5 0.5,0.5 m -0.5,-2.00352 c 0,-0.27615 -0.223858,-0.5 -0.5,-0.5 m -18.577609,-0.5 c 0,0.27614 0.223858,0.5 0.5,0.5 m -0.5,-1.7254 c 0,-0.27615 -0.223858,-0.5 -0.5,-0.5 m -15.164118,0 c -0.276142,0 -0.561391,0.73043 -0.561391,1.00658 m -0.5,1.12142 c 0.276142,0 0.5,-0.22385 0.5,-0.5 m -18.568568,0.5 c -0.276142,0 -0.435552,0.42213 -0.435552,0.69827 m -0.5,4.25 c 0.276142,0 0.5,-0.22386 0.5,-0.5 m -37.5518166,0.29778 c -0.276142,0 -0.50000005,0.22386 -0.50000005,0.5 m -0.0031,53.21782 c 0,0.27614 0.22385805,0.5 0.50000005,0.5 m 55.0285366,0.34862 c -0.09379,-0.0938 -0.220982,-0.14643 -0.3536,-0.1464 m 76.26043,-54.18836 h -19.64387 m -0.5,-1.23431 c 0,0.27614 0.22386,1.23431 0.5,1.23431 m -0.5,-1.87681 c 0,-0.27614 -0.22386,-0.5 -0.5,-0.5 m 0.5,0.5 v 0.6425 m -55.762917,55.56907 10.384771,14.44716 m 0,0 c 0.09379,0.0938 0.220982,0.14643 0.3536,0.1464 m 0,0 36.970336,4.80971 m 0.6544,0.1297 13.43312,7.88501 m 1.928,-0.3795 12.40746,-21.65596 m -27.76858,14.15045 c -0.21338,-0.0645 -0.43256,-0.10793 -0.6544,-0.1297 m 14.08752,8.01471 c 0.63688,0.42917 1.50128,0.25903 1.928,-0.3795 m 12.40526,-21.65826 c 0.1528,-0.26518 0.23129,-0.56666 0.2272,-0.8727 m -8.82973,15.14632 4.35478,-7.54889 c 0.23643,0.24447 -0.53182,-2.38204 -2.60827,-2.36317 -3.52394,0.032 -4.93274,4.51701 -8.45633,4.71341 -3.52359,0.1964 -4.93326,-3.92795 -8.45685,-3.77083 -3.52359,0.15712 -4.93275,4.64263 -8.45633,4.52479 -3.523584,-0.11784 -4.933257,-5.30669 -8.456846,-5.09065 -3.523588,0.21605 -4.933256,6.8152 -8.456848,6.1278 -3.52359,-0.68741 -4.932741,-9.36843 -8.456331,-9.42734 -3.341608,-0.0559 -4.782996,6.80542 -7.928199,7.71997 0.0414,0.0246 0.08613,0.043 0.132809,0.0548 l 7.058484,0.91829 c 0.235838,-0.0861 0.480271,-0.13607 0.736906,-0.13177 0.434963,0.007 0.837461,0.14671 1.215946,0.3855 l 27.959029,3.63764 c 0.22178,0.0218 0.4409,0.0652 0.65422,0.12971 l 1.51257,0.87436 c 1.6785,1.02131 1.396,0.22409 2.48459,0.17554 3.52359,-0.15712 4.93326,3.96723 8.45685,3.77083 3.52359,-0.1964 2.94904,-4.65448 6.47263,-4.7134 0.082,-0.001 0.23719,0.0932 0.23719,0.0134 z M 36.613314,161.71483 c 1.293031,-1.27703 2.560526,-1.29952 4.405933,-1.33038 1.900578,-0.0318 3.188262,0.0549 4.522204,1.33038 m 7.083288,1e-5 c 1.6447,-1.84877 3.038704,-2.64025 5.307686,-2.24819 3.523591,0.60884 4.932741,8.84598 8.456332,8.76742 3.52359,-0.0786 4.933257,-9.20358 8.456848,-9.14466 3.52359,0.0589 4.932741,8.73992 8.456331,9.42732 3.523592,0.68741 4.93326,-5.91174 8.456848,-6.12778 3.523589,-0.21604 4.933262,4.9728 8.456846,5.09064 3.52358,0.11784 4.93274,-4.36767 8.45633,-4.52479 3.52359,-0.15712 4.93326,3.96723 8.45685,3.77083 3.52359,-0.1964 4.93274,-4.65448 8.45633,-4.7134 3.52359,-0.0589 3.55158,3.65916 7.07517,4.03233 0.003,3e-4 0.005,2.1e-4 0.008,5.1e-4 l 0.0501,-9.50021 c -0.003,-3e-4 -0.005,-2.1e-4 -0.008,-5.2e-4 -3.52359,-0.37316 -3.60168,-4.48965 -7.12527,-4.43073 -3.52359,0.0589 -4.93274,4.517 -8.45633,4.7134 -3.52359,0.19641 -4.93326,-3.92795 -8.45685,-3.77083 -3.52359,0.15712 -4.93275,4.64263 -8.45633,4.52479 -3.523584,-0.11784 -4.933257,-5.30668 -8.456846,-5.09064 -3.523588,0.21604 -4.933256,6.81519 -8.456848,6.12779 -3.52359,-0.6874 -4.932741,-9.3684 -8.456331,-9.42733 -3.523591,-0.0589 -4.933258,9.0661 -8.456848,9.14466 -3.523591,0.0786 -4.932741,-8.15858 -8.456332,-8.76742 -3.523589,-0.60885 -4.933258,5.5898 -8.456848,5.84512 -3.52359,0.25532 -4.932741,-4.67827 -8.456331,-4.61936 -3.523591,0.0589 -4.933258,4.94131 -8.456848,4.90203 -3.523591,-0.0393 -4.932741,-5.34597 -8.456332,-5.09065 -3.523591,0.25532 -4.933258,6.78726 -8.456849,6.31589 -3.523589,-0.47136 -4.933259,-8.06816 -8.4568477,-8.5788 -2.887845,-0.41851 -4.1692999,3.09999 -6.40899195,4.99798 v 7.98011 c -3.1e-5,0.13255 0.05257,0.25968 0.146244,0.35346 0.02616,0.0138 0.05348,0.0252 0.0816498,0.0341 2.13337,-1.94698 3.392098,-4.17917 6.181099,-3.77499 2.0001251,0.28986 3.3224929,1.52486 4.7335609,3.78191 m 8.40724,0 c 1.089571,-1.40767 2.22625,-1.40693 3.772896,-1.519 1.950524,-0.14133 3.25606,0.0886 4.628141,1.519 m 12.285038,-30.71828 c -3.523591,0.0589 -4.933258,4.94131 -8.456848,4.90203 -3.523591,-0.0393 -4.932741,-5.34597 -8.456332,-5.09065 -3.523591,0.25532 -4.933258,6.78777 -8.456849,6.31641 -3.523589,-0.47136 -4.933259,-8.06816 -8.4568477,-8.5788 -2.887845,-0.41851 -4.1692999,3.09947 -6.4089917,4.99746 v 9.89862 c 2.2396918,-1.89799 3.5211468,-5.41597 6.4089917,-4.99746 3.5235887,0.51064 4.9332587,8.10744 8.4568477,8.5788 3.523591,0.47136 4.933258,-6.06109 8.456849,-6.31641 3.523591,-0.25532 4.932741,5.05137 8.456332,5.09065 3.52359,0.0393 4.933257,-4.84311 8.456848,-4.90203 3.52359,-0.0589 4.932741,4.87468 8.456331,4.61936 1.761795,-0.12766 3.295557,-1.98348 4.528871,-3.48896 m 6.492643,-0.24902 c 0.682669,0.85663 1.046907,1.47156 1.6635,2.53434 1.233185,2.12557 2.466371,4.16522 4.228166,4.12594 1.761795,-0.0393 2.99511,-2.34018 4.228424,-4.62389 0.616657,-1.14185 0.304526,-0.82917 0.932162,-1.66794 m 6.730593,0.0868 c 0.401442,0.99377 0.177242,0.40657 0.793835,1.53834 0.616592,1.13178 1.233185,2.28319 1.915854,3.19462 0.682668,0.91143 1.431414,1.58288 2.312311,1.75473 3.523592,0.6874 4.93326,-5.91175 8.456848,-6.12779 3.523589,-0.21604 4.933262,4.97281 8.456846,5.09064 3.52358,0.11785 4.93274,-4.36766 8.45633,-4.52478 3.52359,-0.15712 4.93326,3.96723 8.45685,3.77083 3.52359,-0.19641 4.93274,-4.65449 8.45633,-4.71341 3.52359,-0.0589 3.60168,4.05757 7.12527,4.43074 0.003,3e-4 0.005,2.1e-4 0.008,5.1e-4 v -9.89862 c -0.003,-3e-4 -0.005,-2.1e-4 -0.008,-5.2e-4 -3.52359,-0.37316 -3.60168,-4.48966 -7.12527,-4.43073 -3.52359,0.0589 -4.93274,4.517 -8.45633,4.7134 -3.52359,0.19641 -4.93326,-3.92795 -8.45685,-3.77082 -3.52359,0.15712 -4.93275,4.64314 -8.45633,4.5253 -0.880893,-0.0295 -1.62967,-0.37589 -2.312388,-0.87559 -0.682717,-0.4997 -1.299375,-1.15267 -1.916033,-1.7952 m -6.540816,-11.17372 c 0.688365,-0.63221 1.431494,-1.09126 2.312391,-1.14527 3.523589,-0.21605 4.933262,4.97332 8.456846,5.09116 3.52358,0.11784 4.93274,-4.36819 8.45633,-4.52531 3.52359,-0.15712 4.93326,3.96723 8.45685,3.77083 3.52359,-0.1964 4.93274,-4.65449 8.45633,-4.71341 3.52359,-0.0589 3.60168,4.05758 7.12527,4.43074 0.003,3.1e-4 0.005,2.2e-4 0.008,5.2e-4 v -9.89862 c -0.003,-3e-4 -0.005,-2.2e-4 -0.008,-5.2e-4 -3.52359,-0.37316 -3.60168,-4.48965 -7.12527,-4.43074 -3.52359,0.0589 -4.93274,4.51701 -8.45633,4.71341 -3.52359,0.1964 -4.93326,-3.92795 -8.45685,-3.77083 -3.52359,0.15712 -4.93275,4.64315 -8.45633,4.52531 -3.523584,-0.11784 -4.933257,-5.3072 -8.456846,-5.09116 -3.523588,0.21604 -4.933256,6.81519 -8.456848,6.12779 -3.52359,-0.68741 -4.932741,-9.3679 -8.456331,-9.42682 -3.523591,-0.0589 -4.933258,9.06559 -8.456848,9.14415 -3.523591,0.0786 -4.932741,-8.15859 -8.456332,-8.76743 -3.523589,-0.60884 -4.933258,5.5898 -8.456848,5.84512 -3.52359,0.25532 -4.932741,-4.67828 -8.456331,-4.61935 -3.523591,0.0589 -4.933258,4.9413 -8.456848,4.90202 -3.523591,-0.0393 -4.932741,-5.34596 -8.456332,-5.09064 -3.523591,0.25532 -4.933258,6.78777 -8.456849,6.31641 -3.523589,-0.47136 -4.933259,-8.06816 -8.4568472,-8.57881 -2.887845,-0.4185 -4.1692999,3.09948 -6.4089922,4.99747 v 9.89862 c 2.2396923,-1.89799 3.5211473,-5.41597 6.4089922,-4.99746 3.5235882,0.51064 4.9332582,8.10744 8.4568472,8.5788 3.523591,0.47136 4.933258,-6.06109 8.456849,-6.31641 3.523591,-0.25532 4.932741,5.05136 8.456332,5.09064 3.52359,0.0393 4.933257,-4.8431 8.456848,-4.90202 0.440449,-0.007 0.847859,0.0633 1.230491,0.19204 0.382632,0.12877 0.740486,0.31566 1.08182,0.54078 0.341335,0.22513 0.66615,0.48849 0.982706,0.7702 0.316556,0.28171 0.624852,0.58178 0.933148,0.88031 0.308297,0.29853 2.247079,2.43324 3.55552,2.4492 l 1.115598,-0.0192 c 1.613685,-0.20153 3.477696,-3.06728 3.785472,-3.44056 0.309514,-0.3754 0.616658,-0.74599 0.933244,-1.08395 0.316586,-0.33796 0.64143,-0.64427 0.982788,-0.89401 0.341359,-0.24975 0.699232,-0.44294 1.081879,-0.55466 0.382646,-0.11173 0.790064,-0.14199 1.230513,-0.0659 0.220224,0.038 0.432189,0.1059 0.636927,0.19966 0.204738,0.0938 0.402249,0.21341 0.593565,0.35509 0.191316,0.14167 0.376437,0.30536 0.556396,0.48717 0.17996,0.18181 0.354757,0.38173 0.525424,0.59589 0.170667,0.21415 0.337205,0.44254 0.500645,0.68126 0.16344,0.23872 0.323779,0.48777 0.482061,0.74327 0.158277,0.25549 2.519305,5.97158 5.153641,5.9622 2.154069,0.0429 3.51878,-3.89648 5.227674,-6.60786 0.316586,-0.53317 0.583096,-0.97676 0.924454,-1.40097 0.341359,-0.4242 0.699233,-0.77612 1.081879,-1.02015 0.382646,-0.24403 0.790065,-0.38017 1.230514,-0.3728 0.880898,0.0147 1.629643,0.56834 2.312311,1.40121 0.682669,0.83287 2.353607,3.56014 2.970199,5.03156 M 43.706007,102.85685 c 1.828115,1.41703 3.318673,3.24082 5.76957,3.06322 1.89304,-0.13717 3.116514,-1.47246 4.444794,-3.06322 z m 14.933765,-2.128 c 3.446781,0.75246 4.260691,8.1913 7.748985,8.11353 3.067069,-0.0684 4.533089,-6.3598 7.185091,-8.11353 z m 19.388584,2.22539 c 1.630065,2.63222 3.020127,5.73119 5.27358,6.17081 3.523592,0.6874 4.93326,-5.30726 8.456848,-5.5233 0.981628,-0.0602 0.641764,-0.29791 1.386651,0.25437 v -0.40217 c -2.3e-5,-0.0436 -0.0058,-0.0871 -0.01705,-0.12919 -0.01134,-0.0423 -0.02819,-0.083 -0.05013,-0.12092 -0.0219,-0.0378 -0.04865,-0.0725 -0.07958,-0.10336 -0.03083,-0.0309 -0.06557,-0.0577 -0.103353,-0.0796 -0.03777,-0.0219 -0.07825,-0.0388 -0.120406,-0.0501 -0.04233,-0.0112 -0.08594,-0.0167 -0.129708,-0.0165 z m 16.236907,2.50311 c 1.434529,1.43068 3.921092,2.5632 5.950367,2.63107 2.34104,0.0783 3.75065,-1.26473 5.4653,-2.63107 z m 17.809387,0.92295 v -0.42272 c 4e-5,-0.0438 -0.006,-0.0874 -0.017,-0.12971 -0.0114,-0.0421 -0.0282,-0.0826 -0.0501,-0.1204 -0.0219,-0.0378 -0.0487,-0.0725 -0.0796,-0.10335 -0.0308,-0.0309 -0.0656,-0.0577 -0.10335,-0.0796 -0.0378,-0.0219 -0.0783,-0.0388 -0.12041,-0.0501 -0.0423,-0.0113 -0.0859,-0.0171 -0.12971,-0.017 l -0.68994,-7e-5 m 7.39769,2.3768 h -2.76883"
       clip-path="none"
       sodipodi:nodetypes="ccccccccccccccccccccccccccccccccccccccccccccccccccccccccccccccccccccccccccsssssssccccccccssssccsccsssssssssscccsssssssssssssssccccsccsccssssccssssssccsssccssssssssscccsssssccsssssscccsssssssssscssssccsssssssssccsssssssssssccssssccscccscccssccsccsccccscccccscsccccc"
       inkscape:export-filename="path5693.svg"
       inkscape:export-xdpi="96"
       inkscape:export-ydpi="96" /><path
       id="path2280-6"
       d="m 43.974199,138.06061 q 0.256315,0.35554 0.545702,0.61185 0.289387,0.25631 0.727603,0.47956 0.438215,0.22324 1.066599,0.33072 0.628384,0.11576 1.455206,0.11576 0.09095,0 0.190169,0 1.719788,-0.0248 2.695437,-1.19062 0.967381,-1.16582 0.967381,-3.1998 0,-0.0661 -0.0083,-0.10749 -0.01654,-1.12447 -0.363802,-2.03398 -0.347265,-0.91777 -0.950844,-1.51308 -0.60358,-0.60358 -1.405596,-0.92604 -0.810285,-0.32246 -1.752861,-0.32246 -0.562239,0 -1.20716,0.29765 -0.653188,0.28939 -1.215427,0.82683 -0.562238,0.53743 -0.78548,1.16581 v 0.008 0.008 q -0.02481,0.0992 -0.02481,0.19844 0,0.42168 0.314192,0.86816 0.314192,0.43822 0.644921,0.678 0.314192,0.22324 0.760676,0.44648 0.438215,0.22324 1.074867,0.47129 0.628384,0.23978 0.975649,0.37207 0.347265,0.12402 1.116209,0.3886 0.768944,0.25632 0.843358,0.28112 -0.148828,0.76895 -0.570507,1.19063 -0.429947,0.42167 -1.207159,0.44648 -0.05788,0.008 -0.115755,0.008 -0.413411,0 -0.818553,-0.12402 -0.405142,-0.13229 -0.677993,-0.30593 -0.28112,-0.17363 -0.446484,-0.30592 -0.173632,-0.14056 -0.223242,-0.21497 -0.479556,-0.63666 -0.967381,-0.63666 -0.264582,0 -0.520897,0.17364 -0.429947,0.29765 -0.429947,0.7276 0,0.35553 0.314192,0.78548 z m 3.522259,-6.16808 q 0.264582,0 0.537434,0.0909 0.264582,0.0827 0.545702,0.28938 0.272851,0.20671 0.504361,0.51263 0.223241,0.29766 0.388606,0.76068 0.165364,0.46302 0.214973,1.03352 -2.902143,-0.73587 -3.79511,-1.47174 0.355534,-0.67799 0.74414,-0.94257 0.380337,-0.27285 0.859894,-0.27285 z m 11.851988,6.6311 q 0,0.49609 0.272851,0.73587 0.264583,0.24805 0.686262,0.24805 0.02481,0 0.107487,0 0.347265,-0.0165 0.595311,-0.25632 0.239778,-0.23151 0.272851,-0.7276 0,-0.10748 0.08268,-0.77721 0.07441,-0.67799 0.09095,-1.15755 0.01654,-0.30592 0.01654,-0.68626 0,-0.9095 -0.107487,-2.42259 -0.107487,-1.51308 -0.124023,-1.9761 -0.0083,-0.53743 -0.32246,-0.81029 -0.322461,-0.28111 -0.74414,-0.28111 -0.0083,0 -0.0248,0 -0.01654,0 -0.01654,0 -0.388606,0 -0.636652,0.23151 -0.248046,0.22324 -0.248046,0.71106 0,0.0827 0.0083,0.1819 l 0.0083,0.0992 q -0.454752,-0.51263 -1.132745,-0.82682 -0.686262,-0.32246 -1.587497,-0.32246 -1.231964,0 -1.860348,0.87643 -0.636652,0.86816 -0.677993,2.41432 -0.03307,0.99219 -0.256315,2.54661 -0.223242,1.55442 -0.256315,2.05878 0,0.0496 0,0.10749 0,0.52917 0.248047,0.76895 0.239778,0.24804 0.611848,0.24804 0.0083,0 0.0248,0 0.0083,0 0.01654,0 0.405142,0 0.711066,-0.27285 0.297656,-0.26458 0.338997,-0.82682 0.01654,-0.14056 0.1819,-1.54616 0.157096,-1.40559 0.198437,-2.29856 0.03307,-0.57051 0.07441,-0.93431 0.03307,-0.3638 0.09922,-0.63665 0.06615,-0.27285 0.173632,-0.40514 0.107487,-0.14056 0.248047,-0.19844 0.140559,-0.0579 0.363801,-0.0579 0.487825,0 0.934308,0.1819 0.446484,0.17363 0.78548,0.47956 0.338997,0.29765 0.578775,0.61185 0.239779,0.30592 0.429947,0.65318 0.04134,0.65319 0.04134,1.2237 0,0.0827 0,0.23978 -0.0083,0.15709 -0.0083,0.23151 0,0.56224 -0.09922,1.43867 -0.09922,0.87643 -0.09922,1.13274 z m 0.454752,-3.58013 z m 9.015991,3.69589 q 0,0.0165 0,0.0413 0,0.35553 0.206706,0.59531 0.206705,0.24804 0.702798,0.24804 0.04134,0 0.08268,0 0.396874,-0.0165 0.628384,-0.21497 0.23151,-0.19844 0.272851,-0.66146 0,-0.0248 0.09922,-0.79374 0.09922,-0.77722 0.115755,-1.26504 0.01654,-0.27285 0.01654,-0.61185 0,-0.89297 -0.115755,-2.41432 -0.124023,-1.52962 -0.132291,-2.07532 -0.02481,-0.5457 -0.338997,-0.81028 -0.314192,-0.26459 -0.752407,-0.26459 -0.388606,0 -0.636653,0.23978 -0.256314,0.23151 -0.256314,0.76068 0,0.0496 0,0.10748 l 0.05788,0.57051 q -0.595311,-0.63665 -1.703252,-1.08313 -1.116209,-0.45476 -2.505268,-0.45476 -0.115755,0 -0.23151,0.008 h -0.01654 -0.0083 q -0.206705,0.0496 -0.355533,0.29766 -0.148828,0.23978 -0.223242,0.57877 -0.07441,0.339 -0.09922,0.63666 -0.03307,0.28938 -0.03307,0.52916 0,0.42168 0.06615,0.678 0.124023,0.61184 0.802016,0.78548 0.07441,0.0165 0.165364,0.0165 0.314193,0 0.562239,-0.21498 0.248046,-0.22324 0.289387,-0.5209 0.02481,-0.17363 0.03307,-0.42167 0.0083,-0.24805 0.03307,-0.41341 0.02481,-0.16537 0.115755,-0.28939 0.512629,0.0165 1.01699,0.21497 0.504361,0.19844 0.876431,0.48783 0.372069,0.28112 0.686261,0.62838 0.314193,0.339 0.504361,0.62012 0.181901,0.28112 0.256315,0.47955 0.02481,0.57878 0.02481,0.89297 0,0.0661 0,0.19844 -0.0083,0.12402 -0.0083,0.1819 0,0.60358 -0.09095,1.59576 -0.09922,0.99219 -0.107487,1.11621 z m 8.718336,0.94257 q 0.851626,-0.0165 1.562692,-0.3886 0.711067,-0.37207 1.182355,-0.98392 0.46302,-0.62012 0.719334,-1.4056 0.256315,-0.79374 0.256315,-1.65364 0,-0.008 0,-0.0413 0,-0.0331 0,-0.0413 0,-1.01699 -0.272851,-1.88515 -0.281119,-0.86816 -0.802017,-1.52135 -0.520897,-0.65319 -1.331182,-1.01699 -0.810285,-0.37207 -1.819007,-0.37207 -0.603579,0 -1.141013,0.15709 -0.545702,0.14883 -1.041795,0.4961 -0.496093,0.33899 -0.851626,0.85989 -0.363801,0.51263 -0.578775,1.28157 -0.214973,0.76895 -0.214973,1.71979 0,0.28112 0.01654,0.55397 0.06615,1.01699 0.338997,1.78594 0.264583,0.76894 0.768944,1.33118 0.496092,0.55397 1.281573,0.83509 0.777212,0.28939 1.835543,0.28939 0.05788,0 0.09095,0 z m -0.363801,-1.69498 q -0.05788,0 -0.09922,0 -0.595311,0 -1.01699,-0.37207 -0.421679,-0.37207 -0.628384,-1.00045 -0.206705,-0.62839 -0.239778,-1.47175 -0.0083,-0.14882 -0.0083,-0.31419 0,-2.86907 2.083589,-2.86907 0.388606,0 0.702798,0.14883 0.305924,0.14056 0.512629,0.40514 0.198438,0.25632 0.347265,0.56224 0.148828,0.30593 0.239779,0.68626 0.08268,0.38034 0.124023,0.7028 0.04134,0.31419 0.06615,0.66973 0,0.0827 0,0.27285 0,0.46302 -0.04961,0.82682 -0.05788,0.35553 -0.198437,0.68626 -0.14056,0.33073 -0.372069,0.55397 -0.23151,0.21497 -0.60358,0.35553 -0.37207,0.1323 -0.859894,0.1571 z m 5.741779,0.10749 q 1.446937,1.66191 4.423494,1.66191 0.02481,0 0.07441,0 0.04961,0 0.07441,0 0.719334,0 1.355987,-0.23978 0.636652,-0.23978 1.099672,-0.63665 0.454752,-0.40515 0.793748,-0.92604 0.330729,-0.52917 0.504361,-1.10794 0.165365,-0.58705 0.165365,-1.18236 0,-1.20716 -0.256315,-2.35644 -0.256315,-1.14928 -0.69453,-2.06705 -0.438215,-0.92604 -1.025258,-1.70325 -0.587043,-0.77722 -1.240232,-1.29811 -0.661457,-0.5209 -1.364255,-0.80202 -0.702798,-0.28939 -1.372524,-0.28939 -0.562238,0 -1.050063,0.11576 -0.107486,-0.23978 -0.314192,-0.38861 -0.206705,-0.14883 -0.446483,-0.1819 -0.07441,-0.008 -0.115755,-0.008 -0.314192,0 -0.595312,0.20671 -0.281119,0.19843 -0.355533,0.55397 -0.0083,0.0165 -0.07441,1.00045 -0.07441,0.97565 -0.07441,1.00872 0,0.42168 0.297656,0.81856 0.289388,0.39687 0.611848,0.42994 0.07441,0.008 0.115755,0.008 0.363801,0 0.669725,-0.23978 0.305924,-0.24804 0.305924,-0.62011 0,-0.14883 -0.03307,-0.64492 0.01654,0 0.08268,-0.0496 0.06615,-0.0496 0.09095,-0.0662 0.0248,-0.0165 0.09095,-0.0579 0.06615,-0.0496 0.107487,-0.0661 0.03307,-0.0248 0.09922,-0.0579 0.06615,-0.0331 0.115755,-0.0496 0.04961,-0.0165 0.115755,-0.0331 0.05788,-0.0248 0.115755,-0.0331 0.05788,-0.008 0.115755,-0.008 0.512629,0 1.091404,0.33073 0.578775,0.33072 1.116209,0.9343 0.529166,0.60358 0.967381,1.37253 0.429947,0.76894 0.69453,1.74459 0.256314,0.97565 0.256314,1.9513 0,0.71107 -0.289387,1.37252 -0.289387,0.65319 -0.793748,1.0666 -0.504361,0.41341 -1.083136,0.41341 -0.702798,0 -1.364255,-0.19843 -0.669726,-0.19844 -1.0666,-0.42168 -0.405142,-0.22325 -0.752407,-0.4961 -0.487825,-0.34726 -0.810285,-0.34726 -0.239778,0 -0.438215,0.14883 -0.338997,0.24804 -0.338997,0.62011 0,0.37207 0.396874,0.81856 z"
       style="font-size:16.9333px;line-height:0.2;font-family:'Comic Mono';-inkscape-font-specification:'Comic Mono';letter-spacing:0.574146px;display:inline;stroke:#000000" /></g></svg>
