<?xml version="1.0" encoding="UTF-8" standalone="no"?>
<svg
   version="1.1"
   width="132.93532mm"
   height="90.092651mm"
   viewBox="0 0 132.93531 90.092648"
   id="svg2808"
   sodipodi:docname="corne.project.svg"
   inkscape:version="1.2.2 (b0a8486541, 2022-12-01)"
   xml:space="preserve"
   xmlns:inkscape="http://www.inkscape.org/namespaces/inkscape"
   xmlns:sodipodi="http://sodipodi.sourceforge.net/DTD/sodipodi-0.dtd"
   xmlns="http://www.w3.org/2000/svg"
   xmlns:svg="http://www.w3.org/2000/svg"
   xmlns:rdf="http://www.w3.org/1999/02/22-rdf-syntax-ns#"
   xmlns:cc="http://creativecommons.org/ns#"
   xmlns:dc="http://purl.org/dc/elements/1.1/"><sodipodi:namedview
     id="namedview13"
     pagecolor="#505050"
     bordercolor="#ffffff"
     borderopacity="1"
     inkscape:showpageshadow="0"
     inkscape:pageopacity="0"
     inkscape:pagecheckerboard="1"
     inkscape:deskcolor="#505050"
     inkscape:document-units="mm"
     showgrid="false"
     inkscape:zoom="1.5214803"
     inkscape:cx="284.26264"
     inkscape:cy="447.59042"
     inkscape:window-width="1920"
     inkscape:window-height="1011"
     inkscape:window-x="0"
     inkscape:window-y="0"
     inkscape:window-maximized="1"
     inkscape:current-layer="g6220" /><defs
     id="defs2812" /><title
     id="title2704">SVG Image created as corne-bottom-plate-Edge_Cuts.svg date 2023/04/05 13:59:53 </title><desc
     id="desc2706">Image generated by PCBNEW </desc><metadata
     id="metadata257"><rdf:RDF><cc:Work
         rdf:about=""><dc:title>SVG Image created as corne-bottom-plate-Edge_Cuts.svg date 2023/04/05 13:59:53 </dc:title></cc:Work></rdf:RDF></metadata><g
     id="g6220"
     transform="translate(-0.28309335,-0.22857398)"
     style="display:inline"><path
       id="path5693"
       style="display:inline;fill:none;fill-opacity:0;stroke:#000000;stroke-width:1;stroke-linecap:round;stroke-linejoin:round;stroke-dasharray:none;stroke-opacity:1"
       d="M 111.57455,5.4574994 H 93.645204 m -0.5,-0.5 V 3.4539751 m -0.5,-0.5 H 74.567595 m -0.5,-0.5 V 1.228574 m -0.5,-0.50000002 H 58.403477 M 57.842086,1.7351556 v 0.621426 m -0.5,0.5 H 39.273518 m -0.435552,0.6982683 v 3.75 m -0.5,0.5 L 1.2861503,7.6026303 m -0.49999995,0.5 -0.003057,53.2178137 M 55.958029,62.022664 1.2830935,61.820444 M 132.71842,8.334307 l -0.0501,58.342289 m 0.0501,-58.342289 c 0,-0.2761424 -0.22386,-0.5 -0.5,-0.5 M 93.145204,4.9574994 c 0,0.2761424 0.223858,0.5 0.5,0.5 m -0.5,-2.0035243 c 0,-0.2761424 -0.223858,-0.5 -0.5,-0.5 m -18.577609,-0.5 c 0,0.2761424 0.223858,0.5 0.5,0.5 m -0.5,-1.7254011 c 0,-0.27614239 -0.223858,-0.50000002 -0.5,-0.50000002 m -15.164118,0 c -0.276142,0 -0.561391,0.73043932 -0.561391,1.00658162 m -0.5,1.121426 c 0.276142,0 0.5,-0.2238576 0.5,-0.5 m -18.568568,0.5 c -0.276142,0 -0.435552,0.4221259 -0.435552,0.6982683 m -0.5,4.25 c 0.276142,0 0.5,-0.2238576 0.5,-0.5 M 1.2861503,7.6026303 c -0.2761423,0 -0.49999995,0.2238576 -0.49999995,0.5 m -0.003057,53.2178137 c 0,0.276143 0.22385765,0.5 0.49999995,0.5 m 55.0285357,0.34862 c -0.09379,-0.09376 -0.220982,-0.146425 -0.3536,-0.1464 M 132.21842,7.834307 H 112.57455 M 112.07455,6.6 c 0,0.2761424 0.22386,1.234307 0.5,1.234307 m -0.5,-1.8768076 c 0,-0.2761424 -0.22386,-0.5 -0.5,-0.5 m 0.5,0.5 V 6.6 M 56.311629,62.169064 66.6964,76.616237 m 0,0 c 0.09379,0.09376 0.220982,0.146425 0.3536,0.1464 m 0,0 36.97034,4.809707 m 0.6544,0.1297 13.43312,7.885012 m 1.928,-0.3795 12.40746,-21.65596 m -27.76858,14.150448 c -0.21338,-0.06449 -0.43256,-0.107932 -0.6544,-0.1297 m 14.08752,8.014712 c 0.63688,0.429171 1.50128,0.259027 1.928,-0.3795 m 12.40526,-21.65826 c 0.1528,-0.265188 0.23129,-0.566666 0.2272,-0.8727 m -56.606813,11.258208 27.959033,3.637637 c 0.22178,0.02178 0.4409,0.06523 0.65422,0.129708 l 1.51257,0.874365 c 1.6785,1.021309 1.396,0.224085 2.48459,0.175544 3.52359,-0.157121 4.93326,3.96723 8.45685,3.770829 3.52359,-0.196402 2.94904,-4.654487 6.47263,-4.713407 0.082,-0.0014 0.23719,0.09324 0.23719,0.01344 v -7e-6 l 4.35478,-7.548894 c 0.23643,0.244472 -0.53182,-2.38204 -2.60827,-2.363163 -3.52394,0.03204 -4.93274,4.517008 -8.45633,4.713408 -3.52359,0.196401 -4.93326,-3.927951 -8.45685,-3.77083 -3.52359,0.15712 -4.93275,4.64263 -8.45633,4.524789 -3.523588,-0.117839 -4.933261,-5.306686 -8.45685,-5.090646 -3.523588,0.216041 -4.933256,6.815194 -8.456848,6.127792 -3.52359,-0.687403 -4.932741,-9.368422 -8.456331,-9.427332 -3.341608,-0.05588 -4.782996,6.805419 -7.928199,7.719965 0.0414,0.02456 0.08613,0.04301 0.132809,0.05478 l 7.058484,0.918291 M 36.613269,61.806232 c 1.293031,-1.277035 2.560526,-1.299524 4.405933,-1.330383 1.900578,-0.03179 3.188262,0.05489 4.522204,1.330383 m 7.083289,0 c 1.6447,-1.848776 3.038704,-2.731636 5.307686,-2.339578 3.523591,0.608842 4.932741,8.845985 8.456332,8.767424 3.52359,-0.07856 4.933257,-9.203582 8.456848,-9.144661 3.52359,0.05891 4.932741,8.739929 8.456331,9.427331 3.523592,0.687402 4.93326,-5.911751 8.456848,-6.127791 3.523589,-0.216041 4.933262,4.972805 8.45685,5.090645 3.52358,0.117841 4.93274,-4.367669 8.45633,-4.524788 3.52359,-0.157122 4.93326,3.96723 8.45685,3.770829 3.52359,-0.196402 4.93274,-4.654487 8.45633,-4.713407 3.52359,-0.05893 3.55158,3.659172 7.07517,4.032333 0.003,3.03e-4 0.005,2.19e-4 0.008,5.17e-4 l 0.0501,-9.500217 c -0.003,-2.98e-4 -0.005,-2.14e-4 -0.008,-5.17e-4 -3.52359,-0.373161 -3.60168,-4.489657 -7.12527,-4.430737 -3.52359,0.05892 -4.93274,4.517007 -8.45633,4.713407 -3.52359,0.196402 -4.93326,-3.92795 -8.45685,-3.770829 -3.52359,0.15712 -4.93275,4.642628 -8.45633,4.524788 -3.523588,-0.117839 -4.933261,-5.306685 -8.45685,-5.090645 -3.523588,0.216042 -4.933256,6.815194 -8.456848,6.127791 -3.52359,-0.687402 -4.932741,-9.368401 -8.456331,-9.427331 -3.523591,-0.05892 -4.933258,9.066101 -8.456848,9.144661 -3.523591,0.07856 -4.932741,-8.158582 -8.456332,-8.767423 -3.523589,-0.608843 -4.933258,5.589801 -8.456848,5.845121 -3.52359,0.255321 -4.932741,-4.678266 -8.456331,-4.619356 -3.523591,0.05892 -4.933258,4.941306 -8.456848,4.902026 -3.523591,-0.03928 -4.932741,-5.345966 -8.456332,-5.090645 -3.523591,0.255321 -4.933257,6.787256 -8.456848,6.315893 C 12.125585,56.449712 10.715915,48.85291 7.1923258,48.342269 4.3044815,47.92376 3.0230261,51.442261 0.78333361,53.340248 v 7.980106 c -3.076e-5,0.13255 0.0525715,0.259687 0.1462443,0.353467 0.0261547,0.01376 0.0534779,0.02518 0.0816488,0.03411 2.1333699,-1.946987 3.392098,-4.087796 6.1810991,-3.683612 2.000125,0.28986 3.3224932,1.524861 4.7335612,3.781913 m 8.407239,0 c 1.089571,-1.407676 2.22625,-1.406931 3.772896,-1.519002 1.950524,-0.141335 3.25606,0.08856 4.628141,1.519002 M 41.019202,30.996558 c -3.523591,0.05892 -4.933258,4.941306 -8.456848,4.902026 -3.523591,-0.03928 -4.932741,-5.345966 -8.456332,-5.090645 -3.523591,0.25532 -4.933257,6.787772 -8.456848,6.31641 C 12.125585,36.652988 10.715915,29.056186 7.1923258,28.545544 4.3044815,28.127036 3.0230261,31.64502 0.78333361,33.543007 v 9.898621 C 3.0230261,41.543641 4.3044815,38.025656 7.1923258,38.444165 c 3.5235892,0.510642 4.9332592,8.107443 8.4568482,8.578805 3.523591,0.471361 4.933257,-6.061089 8.456848,-6.316411 3.523591,-0.25532 4.932741,5.051365 8.456332,5.090646 3.52359,0.03928 4.933257,-4.843107 8.456848,-4.902027 3.52359,-0.05893 4.932741,4.874677 8.456331,4.619357 1.761795,-0.12766 2.99511,-1.741151 4.228424,-3.246622 m 7.150997,0.0668 c 0.682669,0.856623 0.689,0.913401 1.305593,1.976186 1.233185,2.125571 2.466371,4.165216 4.228166,4.125936 1.761795,-0.03928 2.99511,-2.340175 4.228424,-4.623886 0.616657,-1.141855 0.304526,-0.829167 0.932162,-1.667945 m 6.730593,0.08681 c 0.401442,0.993778 0.177242,0.406577 0.793835,1.538348 0.616592,1.131772 1.233185,2.283183 1.915854,3.194614 0.682668,0.911432 1.431414,1.582883 2.312311,1.754733 3.523592,0.687402 4.93326,-5.911751 8.456848,-6.127792 3.523589,-0.21604 4.933262,4.972807 8.45685,5.090646 3.52358,0.117841 4.93274,-4.367669 8.45633,-4.524789 3.52359,-0.15712 4.93326,3.967231 8.45685,3.77083 3.52359,-0.196401 4.93274,-4.654488 8.45633,-4.713408 3.52359,-0.05892 3.60168,4.057576 7.12527,4.430738 0.003,3.03e-4 0.005,2.19e-4 0.008,5.16e-4 v -9.89862 c -0.003,-2.98e-4 -0.005,-2.14e-4 -0.008,-5.17e-4 -3.52359,-0.373162 -3.60168,-4.489667 -7.12527,-4.430737 -3.52359,0.05892 -4.93274,4.517006 -8.45633,4.713407 -3.52359,0.196401 -4.93326,-3.92795 -8.45685,-3.770829 -3.52359,0.15712 -4.93275,4.643145 -8.45633,4.525305 -0.880897,-0.02946 -1.629674,-0.37589 -2.312392,-0.875588 -0.682717,-0.499703 -1.299375,-1.152669 -1.916033,-1.795202 m -8.969541,-8.191127 c 0.412407,-0.96562 1.739568,-2.349648 2.428725,-2.982592 0.688365,-0.632216 1.431494,-1.091266 2.312391,-1.145276 3.523589,-0.216041 4.933262,4.973324 8.45685,5.091162 3.52358,0.117841 4.93274,-4.368185 8.45633,-4.525305 3.52359,-0.157121 4.93326,3.967231 8.45685,3.770829 3.52359,-0.1964 4.93274,-4.654487 8.45633,-4.713407 3.52359,-0.05893 3.60168,4.057576 7.12527,4.430737 0.003,3.04e-4 0.005,2.2e-4 0.008,5.17e-4 v -9.89862 c -0.003,-2.98e-4 -0.005,-2.14e-4 -0.008,-5.17e-4 -3.52359,-0.373161 -3.60168,-4.489647 -7.12527,-4.430738 -3.52359,0.05892 -4.93274,4.517007 -8.45633,4.713408 -3.52359,0.196401 -4.93326,-3.927949 -8.45685,-3.770829 -3.52359,0.157121 -4.93275,4.643144 -8.45633,4.525305 -3.523588,-0.117841 -4.933261,-5.307202 -8.45685,-5.091162 -3.523588,0.21604 -4.933256,6.815193 -8.456848,6.127791 -3.52359,-0.687402 -4.932741,-9.3678998 -8.456331,-9.4268148 -3.523591,-0.05892 -4.933258,9.0655848 -8.456848,9.1441448 -3.523591,0.07856 -4.932741,-8.158582 -8.456332,-8.7674236 -3.523589,-0.6088423 -4.933258,5.5898006 -8.456848,5.8451216 -3.52359,0.255319 -4.932741,-4.678287 -8.456331,-4.619357 -3.523591,0.05892 -4.933258,4.941307 -8.456848,4.902027 -3.523591,-0.03928 -4.932741,-5.345966 -8.456332,-5.090646 -3.523591,0.25532 -4.933257,6.787773 -8.456848,6.316411 C 12.125585,16.855747 10.715915,9.2589448 7.1923258,8.7483032 4.3044815,8.3297944 3.0230261,11.847779 0.78333361,13.745766 v 9.89862 C 3.0230261,21.746399 4.3044815,18.228415 7.1923258,18.646924 c 3.5235892,0.510642 4.9332592,8.107443 8.4568482,8.578804 3.523591,0.471362 4.933257,-6.061089 8.456848,-6.31641 3.523591,-0.255321 4.932741,5.051365 8.456332,5.090645 3.52359,0.03928 4.933257,-4.843106 8.456848,-4.902026 0.440449,-0.0074 0.847859,0.06328 1.230491,0.192044 0.382632,0.128765 0.740486,0.315653 1.08182,0.540778 0.341335,0.225125 0.66615,0.488486 0.982706,0.770199 0.316556,0.281713 0.624852,0.581777 0.933148,0.880307 0.308297,0.298529 0.616593,0.595525 0.933149,0.8711 m 6.264393,0.0349 c 0.38992,-0.774205 0.951272,-1.543304 1.259048,-1.916591 0.309514,-0.375394 0.616658,-0.745984 0.933244,-1.083946 0.316586,-0.337961 0.64143,-0.644267 0.982788,-0.894014 0.341359,-0.249747 0.699232,-0.442935 1.081879,-0.554659 0.382646,-0.111725 0.790064,-0.141987 1.230513,-0.06588 0.220224,0.03805 0.432189,0.105903 0.636927,0.199659 0.204738,0.09376 0.402249,0.213418 0.593565,0.355092 0.191316,0.141675 0.376437,0.305362 0.556396,0.48717 0.17996,0.181808 0.354757,0.381736 0.525424,0.595891 0.170667,0.214156 0.337205,0.442539 0.500645,0.681258 0.16344,0.238719 0.323783,0.487773 0.482061,0.743269 0.158277,0.255496 0.31449,0.517435 0.469671,0.781924 0.155181,0.264489 0.309329,0.531528 0.463477,0.797224 0.154148,0.265697 0.308296,0.530051 0.463477,0.789169 0.155181,0.259119 0.311394,0.513002 0.469671,0.757758 0.158278,0.244756 0.318621,0.480384 0.482061,0.702991 m 5.125349,0.405739 c 0.341359,-0.432799 0.666202,-0.935735 0.982788,-1.473205 0.316586,-0.537469 0.624915,-1.10947 0.933244,-1.680397 0.308328,-0.570928 0.616657,-1.140781 0.933243,-1.673954 0.316586,-0.533173 0.64143,-1.029666 0.982788,-1.453873 0.341359,-0.424206 0.699233,-0.776126 1.081879,-1.020154 0.382646,-0.244028 0.790065,-0.380163 1.230514,-0.372799 0.880898,0.01473 1.629643,0.568337 2.312311,1.401207 0.682669,0.832871 0.875299,1.306851 1.491891,2.438623 0.616593,1.131772 1.233186,2.283184 1.915854,3.194616 M 43.705963,2.8568257 c 1.828115,1.4170349 3.318673,3.2408193 5.76957,3.0632264 1.89304,-0.1371705 3.116514,-1.4724664 4.444794,-3.0632264 z M 58.639728,0.72882626 c 3.446781,0.75245734 4.260691,8.19130134 7.748985,8.11352804 3.067069,-0.068382 4.533089,-6.3597908 7.185091,-8.11352804 z M 78.028312,2.9542192 c 1.630065,2.632219 3.020127,5.7311888 5.27358,6.1708052 3.523592,0.6874021 4.93326,-5.3072588 8.456848,-5.5232995 0.981628,-0.060186 0.641764,-0.2979035 1.386651,0.2543705 V 3.4539303 c -2.3e-5,-0.043623 -0.0058,-0.087055 -0.01705,-0.129191 -0.01134,-0.04233 -0.02819,-0.082986 -0.05013,-0.1209229 -0.0219,-0.037778 -0.04865,-0.072525 -0.07958,-0.1033529 -0.03083,-0.030927 -0.06557,-0.057682 -0.103353,-0.079582 -0.03777,-0.021894 -0.07825,-0.038746 -0.120406,-0.050126 -0.04233,-0.011166 -0.08594,-0.016726 -0.129708,-0.016536 z m 16.236907,2.5031134 c 1.434529,1.4306738 3.921092,2.5631968 5.950371,2.6310626 2.34104,0.078292 3.75065,-1.2647252 5.4653,-2.6310626 z M 112.07461,6.3802737 V 5.9575604 c 4e-5,-0.043794 -0.006,-0.087403 -0.017,-0.1297078 -0.0114,-0.04215 -0.0282,-0.08263 -0.0501,-0.1204061 -0.0219,-0.037779 -0.0487,-0.072526 -0.0796,-0.1033529 -0.0308,-0.030926 -0.0656,-0.057681 -0.10335,-0.079582 -0.0378,-0.021894 -0.0783,-0.038746 -0.12041,-0.050126 -0.0423,-0.011341 -0.0859,-0.017074 -0.12971,-0.017053 h -0.68994 m 7.39769,2.3767994 h -2.76883"
       clip-path="none"
       sodipodi:nodetypes="ccccccccccccccccccccccccccccccccccccccccccccccccccccccccccccccccccccccccccccssssccsssssssccccsccsssssssssscccsssssssssssssssccccsccsccssssccssssssccsssccssssssssscccsssssccssssssscccsssssssssscssssccsssssssssccsssssssssssssssccssssssssccscccscccssccsccsccccscccccscsccccc"
       inkscape:export-filename="path5693.svg"
       inkscape:export-xdpi="96"
       inkscape:export-ydpi="96" /><path
       id="path2280"
       d="m 91.092677,38.060621 q -0.256315,0.355533 -0.545702,0.611847 -0.289387,0.256315 -0.727603,0.479557 -0.438215,0.223242 -1.066599,0.330728 -0.628384,0.115755 -1.455206,0.115755 -0.09095,0 -0.190169,0 -1.719788,-0.0248 -2.695437,-1.190622 -0.967381,-1.165818 -0.967381,-3.199799 0,-0.06614 0.0083,-0.107487 0.01654,-1.124476 0.363802,-2.03398 0.347265,-0.917772 0.950844,-1.513083 0.60358,-0.603579 1.405596,-0.92604 0.810285,-0.32246 1.752861,-0.32246 0.562239,0 1.20716,0.297656 0.653188,0.289387 1.215427,0.826821 0.562238,0.537434 0.78548,1.165818 v 0.0083 0.0083 q 0.02481,0.09922 0.02481,0.198437 0,0.421679 -0.314192,0.868163 -0.314192,0.438215 -0.644921,0.677993 -0.314192,0.223242 -0.760676,0.446484 -0.438215,0.223242 -1.074867,0.471288 -0.628384,0.239778 -0.975649,0.37207 -0.347265,0.124023 -1.116209,0.388606 -0.768944,0.256314 -0.843358,0.281119 0.148828,0.768944 0.570507,1.190622 0.429947,0.421679 1.207159,0.446484 0.05788,0.0083 0.115755,0.0083 0.413411,0 0.818553,-0.124023 0.405142,-0.132291 0.677993,-0.305924 0.28112,-0.173632 0.446484,-0.305924 0.173632,-0.140559 0.223242,-0.214973 0.479556,-0.636653 0.967381,-0.636653 0.264582,0 0.520897,0.173633 0.429947,0.297655 0.429947,0.727602 0,0.355534 -0.314192,0.785481 z m -3.522259,-6.168087 q -0.264582,0 -0.537434,0.09095 -0.264582,0.08268 -0.545702,0.289388 -0.272851,0.206705 -0.504361,0.512629 -0.223241,0.297656 -0.388606,0.760675 -0.165364,0.46302 -0.214973,1.033527 2.902143,-0.735871 3.79511,-1.471742 -0.355534,-0.677993 -0.74414,-0.942576 -0.380337,-0.272851 -0.859894,-0.272851 z M 75.71843,38.523641 q 0,0.496092 -0.272851,0.735871 -0.264583,0.248046 -0.686262,0.248046 -0.02481,0 -0.107487,0 -0.347265,-0.01654 -0.595311,-0.256315 -0.239778,-0.23151 -0.272851,-0.727602 0,-0.107487 -0.08268,-0.777212 -0.07441,-0.677994 -0.09095,-1.15755 -0.01654,-0.305924 -0.01654,-0.686262 0,-0.909503 0.107487,-2.422586 0.107487,-1.513083 0.124023,-1.976103 0.0083,-0.537434 0.32246,-0.810285 0.322461,-0.281119 0.74414,-0.281119 0.0083,0 0.0248,0 0.01654,0 0.01654,0 0.388606,0 0.636652,0.23151 0.248046,0.223241 0.248046,0.711066 0,0.08268 -0.0083,0.181901 l -0.0083,0.09922 q 0.454752,-0.512629 1.132745,-0.826821 0.686262,-0.32246 1.587497,-0.32246 1.231964,0 1.860348,0.87643 0.636652,0.868163 0.677993,2.414318 0.03307,0.992186 0.256315,2.54661 0.223242,1.554424 0.256315,2.058785 0,0.04961 0,0.107487 0,0.529165 -0.248047,0.768944 -0.239778,0.248046 -0.611848,0.248046 -0.0083,0 -0.0248,0 -0.0083,0 -0.01654,0 -0.405142,0 -0.711066,-0.272851 -0.297656,-0.264583 -0.338997,-0.826821 -0.01654,-0.14056 -0.1819,-1.546156 -0.157096,-1.405596 -0.198437,-2.298563 -0.03307,-0.570507 -0.07441,-0.934308 -0.03307,-0.363802 -0.09922,-0.636653 -0.06615,-0.272851 -0.173632,-0.405142 -0.107487,-0.14056 -0.248047,-0.198437 -0.140559,-0.05788 -0.363801,-0.05788 -0.487825,0 -0.934308,0.181901 -0.446484,0.173632 -0.78548,0.479556 -0.338997,0.297656 -0.578775,0.611848 -0.239779,0.305924 -0.429947,0.653189 -0.04134,0.653189 -0.04134,1.223695 0,0.08268 0,0.239778 0.0083,0.157096 0.0083,0.23151 0,0.562239 0.09922,1.438669 0.09922,0.876431 0.09922,1.132746 z m -0.454752,-3.580137 z m -9.015991,3.695892 q 0,0.01654 0,0.04134 0,0.355533 -0.206706,0.595311 -0.206705,0.248046 -0.702798,0.248046 -0.04134,0 -0.08268,0 -0.396874,-0.01654 -0.628384,-0.214973 -0.23151,-0.198437 -0.272851,-0.661457 0,-0.02481 -0.09922,-0.793749 -0.09922,-0.777212 -0.115755,-1.265036 -0.01654,-0.272851 -0.01654,-0.611848 0,-0.892967 0.115755,-2.414318 0.124023,-1.52962 0.132291,-2.075322 0.02481,-0.545702 0.338997,-0.810284 0.314192,-0.264583 0.752407,-0.264583 0.388606,0 0.636653,0.239778 0.256314,0.23151 0.256314,0.760676 0,0.04961 0,0.107486 l -0.05788,0.570507 q 0.595311,-0.636652 1.703252,-1.083136 1.116209,-0.454752 2.505268,-0.454752 0.115755,0 0.23151,0.0083 h 0.01654 0.0083 q 0.206705,0.04961 0.355533,0.297655 0.148828,0.239778 0.223242,0.578775 0.07441,0.338997 0.09922,0.636653 0.03307,0.289387 0.03307,0.529165 0,0.421679 -0.06615,0.677994 -0.124023,0.611847 -0.802016,0.78548 -0.07441,0.01654 -0.165364,0.01654 -0.314193,0 -0.562239,-0.214973 -0.248046,-0.223242 -0.289387,-0.520898 -0.02481,-0.173632 -0.03307,-0.421679 -0.0083,-0.248046 -0.03307,-0.41341 -0.02481,-0.165364 -0.115755,-0.289388 -0.512629,0.01654 -1.01699,0.214974 -0.504361,0.198437 -0.876431,0.487824 -0.372069,0.28112 -0.686261,0.628385 -0.314193,0.338996 -0.504361,0.620116 -0.181901,0.281119 -0.256315,0.479556 -0.02481,0.578775 -0.02481,0.892967 0,0.06615 0,0.198437 0.0083,0.124023 0.0083,0.181901 0,0.603579 0.09095,1.595765 0.09922,0.992185 0.107487,1.116209 z m -8.718336,0.942576 q -0.851626,-0.01654 -1.562692,-0.388606 -0.711067,-0.37207 -1.182355,-0.983917 -0.46302,-0.620116 -0.719334,-1.405597 -0.256315,-0.793748 -0.256315,-1.653642 0,-0.0083 0,-0.04134 0,-0.03307 0,-0.04134 0,-1.016991 0.272851,-1.885153 0.281119,-0.868162 0.802017,-1.521351 0.520897,-0.653189 1.331182,-1.01699 0.810285,-0.37207 1.819007,-0.37207 0.603579,0 1.141013,0.157096 0.545702,0.148828 1.041795,0.496093 0.496093,0.338997 0.851626,0.859894 0.363801,0.512629 0.578775,1.281573 0.214973,0.768944 0.214973,1.719788 0,0.28112 -0.01654,0.553971 -0.06615,1.01699 -0.338997,1.785934 -0.264583,0.768943 -0.768944,1.331182 -0.496092,0.55397 -1.281573,0.835089 -0.777212,0.289388 -1.835543,0.289388 -0.05788,0 -0.09095,0 z m 0.363801,-1.694984 q 0.05788,0 0.09922,0 0.595311,0 1.01699,-0.372069 0.421679,-0.37207 0.628384,-1.000454 0.206705,-0.628384 0.239778,-1.471742 0.0083,-0.148828 0.0083,-0.314192 0,-2.86907 -2.083589,-2.86907 -0.388606,0 -0.702798,0.148828 -0.305924,0.140559 -0.512629,0.405142 -0.198438,0.256315 -0.347265,0.562239 -0.148828,0.305924 -0.239779,0.686261 -0.08268,0.380338 -0.124023,0.702799 -0.04134,0.314192 -0.06615,0.669725 0,0.08268 0,0.272851 0,0.46302 0.04961,0.826821 0.05788,0.355533 0.198437,0.686262 0.14056,0.330728 0.372069,0.55397 0.23151,0.214974 0.60358,0.355533 0.37207,0.132292 0.859894,0.157096 z m -5.741779,0.107487 q -1.446937,1.661911 -4.423494,1.661911 -0.02481,0 -0.07441,0 -0.04961,0 -0.07441,0 -0.719334,0 -1.355987,-0.239778 -0.636652,-0.239779 -1.099672,-0.636653 -0.454752,-0.405142 -0.793748,-0.92604 -0.330729,-0.529165 -0.504361,-1.10794 -0.165365,-0.587043 -0.165365,-1.182355 0,-1.207159 0.256315,-2.35644 0.256315,-1.149282 0.69453,-2.067054 0.438215,-0.926039 1.025258,-1.703251 0.587043,-0.777212 1.240232,-1.29811 0.661457,-0.520897 1.364255,-0.802016 0.702798,-0.289388 1.372524,-0.289388 0.562238,0 1.050063,0.115755 0.107486,-0.239778 0.314192,-0.388606 0.206705,-0.148828 0.446483,-0.181901 0.07441,-0.0083 0.115755,-0.0083 0.314192,0 0.595312,0.206706 0.281119,0.198437 0.355533,0.55397 0.0083,0.01654 0.07441,1.000454 0.07441,0.975649 0.07441,1.008722 0,0.421678 -0.297656,0.818553 -0.289388,0.396874 -0.611848,0.429947 -0.07441,0.0083 -0.115755,0.0083 -0.363801,0 -0.669725,-0.239778 -0.305924,-0.248047 -0.305924,-0.620116 0,-0.148828 0.03307,-0.644921 -0.01654,0 -0.08268,-0.04961 -0.06615,-0.04961 -0.09095,-0.06615 -0.0248,-0.01654 -0.09095,-0.05788 -0.06615,-0.04961 -0.107487,-0.06615 -0.03307,-0.02481 -0.09922,-0.05788 -0.06615,-0.03307 -0.115755,-0.04961 -0.04961,-0.01654 -0.115755,-0.03307 -0.05788,-0.0248 -0.115755,-0.03307 -0.05788,-0.0083 -0.115755,-0.0083 -0.512629,0 -1.091404,0.330729 -0.578775,0.330728 -1.116209,0.934308 -0.529166,0.603579 -0.967381,1.372523 -0.429947,0.768944 -0.69453,1.744593 -0.256314,0.975649 -0.256314,1.951298 0,0.711067 0.289387,1.372524 0.289387,0.653189 0.793748,1.066599 0.504361,0.413411 1.083136,0.413411 0.702798,0 1.364255,-0.198437 0.669726,-0.198437 1.0666,-0.421679 0.405142,-0.223242 0.752407,-0.496093 0.487825,-0.347265 0.810285,-0.347265 0.239778,0 0.438215,0.148828 0.338997,0.248046 0.338997,0.620116 0,0.372069 -0.396874,0.818553 z"
       style="font-size:16.9333px;line-height:0.2;font-family:'Comic Mono';-inkscape-font-specification:'Comic Mono';letter-spacing:0.574146px;display:inline;stroke:#000000" /></g></svg>
